<?xml version="1.0" standalone="no"?>
<!DOCTYPE svg PUBLIC "-//W3C//DTD SVG 20010904//EN"
 "http://www.w3.org/TR/2001/REC-SVG-20010904/DTD/svg10.dtd">
<svg version="1.0" xmlns="http://www.w3.org/2000/svg"
 width="1280.000000pt" height="1280.000000pt" viewBox="0 0 1280.000000 1280.000000"
 preserveAspectRatio="xMidYMid meet">
<metadata>
Created by potrace 1.15, written by Peter Selinger 2001-2017
</metadata>
<g transform="translate(0.000000,1280.000000) scale(0.100000,-0.100000)"
fill="#000000" stroke="none">
<path d="M8050 10584 c-615 -9 -938 -17 -963 -24 -22 -6 -58 -29 -82 -51 -69
-63 -75 -94 -75 -363 0 -132 5 -247 11 -269 11 -43 68 -111 108 -131 14 -7
202 -64 416 -126 215 -62 394 -116 398 -120 8 -7 -104 -313 -995 -2720 -193
-520 -353 -953 -355 -962 -3 -10 -8 -18 -12 -18 -8 0 -1325 3213 -1346 3285
-32 105 -14 175 56 210 82 43 329 80 619 94 203 9 240 18 298 74 19 18 43 50
55 72 21 38 22 51 22 340 0 289 -1 301 -22 341 -25 47 -85 104 -128 122 -17 6
-210 56 -430 111 l-400 99 -535 -8 c-294 -5 -987 -13 -1540 -20 -620 -7 -1023
-15 -1052 -21 -71 -16 -125 -60 -155 -126 l-26 -57 9 -260 c13 -344 -12 -298
294 -541 102 -81 208 -157 235 -170 46 -21 69 -23 275 -29 124 -4 239 -9 257
-12 28 -5 37 -16 77 -93 24 -47 257 -583 516 -1191 260 -608 635 -1487 835
-1955 563 -1319 836 -1959 1057 -2480 l204 -480 401 -536 c428 -573 433 -578
528 -593 67 -11 338 20 383 43 51 26 94 79 120 145 11 28 205 515 430 1081
225 567 615 1548 867 2180 251 633 576 1449 721 1815 146 366 360 904 475
1195 215 542 247 612 327 724 163 230 365 313 825 340 132 8 150 11 198 37 57
32 103 86 119 143 5 20 13 155 16 301 7 290 6 301 -51 368 -44 52 -96 72 -239
93 -72 10 -356 50 -631 89 l-500 70 -345 -1 c-190 -1 -761 -8 -1270 -15z"/>
</g>
</svg>
